<svg xmlns="http://www.w3.org/2000/svg" version="1.1" xmlns:xlink="http://www.w3.org/1999/xlink" xmlns:svgjs="http://svgjs.dev/svgjs" width="1440" height="560" preserveAspectRatio="none" viewBox="0 0 1440 560"><g mask="url(&quot;#SvgjsMask1011&quot;)" fill="none"><rect width="1440" height="560" x="0" y="0" fill="rgba(0, 54, 101, 1)"></rect><path d="M1440 0L1021.4 0L1440 163.94z" fill="rgba(255, 255, 255, .1)"></path><path d="M1021.4 0L1440 163.94L1440 184.2L584.24 0z" fill="rgba(255, 255, 255, .075)"></path><path d="M584.24 0L1440 184.2L1440 328.72L437.48 0z" fill="rgba(255, 255, 255, .05)"></path><path d="M437.48 0L1440 328.72L1440 491.83000000000004L391.70000000000005 0z" fill="rgba(255, 255, 255, .025)"></path><path d="M0 560L303.5 560L0 515.12z" fill="rgba(0, 0, 0, .1)"></path><path d="M0 515.12L303.5 560L759.14 560L0 473.57z" fill="rgba(0, 0, 0, .075)"></path><path d="M0 473.57L759.14 560L864.99 560L0 196.93z" fill="rgba(0, 0, 0, .05)"></path><path d="M0 196.93L864.99 560L982.87 560L0 161.83z" fill="rgba(0, 0, 0, .025)"></path></g><defs><mask id="SvgjsMask1011"><rect width="1440" height="560" fill="#ffffff"></rect></mask></defs></svg>