<svg xmlns="http://www.w3.org/2000/svg" version="1.1" xmlns:xlink="http://www.w3.org/1999/xlink" xmlns:svgjs="http://svgjs.dev/svgjs" width="1440" height="560" preserveAspectRatio="none" viewBox="0 0 1440 560"><g mask="url(&quot;#SvgjsMask1014&quot;)" fill="none"><rect width="1440" height="560" x="0" y="0" fill="rgba(237, 244, 255, 1)"></rect><path d="M 0,2 C 57.6,56.4 172.8,249.2 288,274 C 403.2,298.8 460.8,151.4 576,126 C 691.2,100.6 748.8,159.6 864,147 C 979.2,134.4 1036.8,39.2 1152,63 C 1267.2,86.8 1382.4,225.4 1440,266L1440 560L0 560z" fill="rgba(226, 241, 255, 1)"></path><path d="M 0,331 C 96,374 288,546.6 480,546 C 672,545.4 768,349.2 960,328 C 1152,306.8 1344,417.6 1440,440L1440 560L0 560z" fill="rgba(207, 227, 247, 1)"></path></g><defs><mask id="SvgjsMask1014"><rect width="1440" height="560" fill="#ffffff"></rect></mask></defs></svg>